<mxfile host="app.diagrams.net" modified="2021-08-04T08:01:15.506Z" agent="5.0 (Windows NT 10.0; Win64; x64) AppleWebKit/537.36 (KHTML, like Gecko) Chrome/92.0.4515.107 Safari/537.36" etag="R4qyB_IacdgkmcBaRll1" version="14.9.4" type="github">
  <diagram id="gMrizKwoQjiYtPMnrfee" name="Page-1">
    <mxGraphModel dx="1102" dy="614" grid="1" gridSize="10" guides="1" tooltips="1" connect="1" arrows="1" fold="1" page="1" pageScale="1" pageWidth="850" pageHeight="1100" math="0" shadow="0">
      <root>
        <mxCell id="0" />
        <mxCell id="1" parent="0" />
        <mxCell id="dps-_7VcEIM5uik_NXev-4" style="edgeStyle=orthogonalEdgeStyle;rounded=0;orthogonalLoop=1;jettySize=auto;html=1;exitX=0.5;exitY=1;exitDx=0;exitDy=0;entryX=0.558;entryY=0;entryDx=0;entryDy=0;entryPerimeter=0;" edge="1" parent="1" source="dps-_7VcEIM5uik_NXev-1" target="dps-_7VcEIM5uik_NXev-3">
          <mxGeometry relative="1" as="geometry" />
        </mxCell>
        <mxCell id="dps-_7VcEIM5uik_NXev-1" value="Start" style="ellipse;whiteSpace=wrap;html=1;" vertex="1" parent="1">
          <mxGeometry x="190" y="30" width="120" height="80" as="geometry" />
        </mxCell>
        <mxCell id="dps-_7VcEIM5uik_NXev-2" value="End" style="ellipse;whiteSpace=wrap;html=1;" vertex="1" parent="1">
          <mxGeometry x="630" y="530" width="120" height="80" as="geometry" />
        </mxCell>
        <mxCell id="dps-_7VcEIM5uik_NXev-6" value="" style="edgeStyle=orthogonalEdgeStyle;rounded=0;orthogonalLoop=1;jettySize=auto;html=1;" edge="1" parent="1" source="dps-_7VcEIM5uik_NXev-3" target="dps-_7VcEIM5uik_NXev-5">
          <mxGeometry relative="1" as="geometry" />
        </mxCell>
        <mxCell id="dps-_7VcEIM5uik_NXev-3" value="Input" style="shape=parallelogram;perimeter=parallelogramPerimeter;whiteSpace=wrap;html=1;fixedSize=1;" vertex="1" parent="1">
          <mxGeometry x="180" y="160" width="120" height="60" as="geometry" />
        </mxCell>
        <mxCell id="dps-_7VcEIM5uik_NXev-8" value="" style="edgeStyle=orthogonalEdgeStyle;rounded=0;orthogonalLoop=1;jettySize=auto;html=1;" edge="1" parent="1" source="dps-_7VcEIM5uik_NXev-5" target="dps-_7VcEIM5uik_NXev-7">
          <mxGeometry relative="1" as="geometry" />
        </mxCell>
        <mxCell id="dps-_7VcEIM5uik_NXev-5" value="Condition" style="rhombus;whiteSpace=wrap;html=1;" vertex="1" parent="1">
          <mxGeometry x="180" y="270" width="120" height="110" as="geometry" />
        </mxCell>
        <mxCell id="dps-_7VcEIM5uik_NXev-10" value="" style="edgeStyle=orthogonalEdgeStyle;rounded=0;orthogonalLoop=1;jettySize=auto;html=1;" edge="1" parent="1" source="dps-_7VcEIM5uik_NXev-7" target="dps-_7VcEIM5uik_NXev-9">
          <mxGeometry relative="1" as="geometry" />
        </mxCell>
        <mxCell id="dps-_7VcEIM5uik_NXev-7" value="Process" style="rounded=0;whiteSpace=wrap;html=1;" vertex="1" parent="1">
          <mxGeometry x="390" y="295" width="120" height="60" as="geometry" />
        </mxCell>
        <mxCell id="dps-_7VcEIM5uik_NXev-11" value="" style="edgeStyle=orthogonalEdgeStyle;rounded=0;orthogonalLoop=1;jettySize=auto;html=1;" edge="1" parent="1" source="dps-_7VcEIM5uik_NXev-9" target="dps-_7VcEIM5uik_NXev-2">
          <mxGeometry relative="1" as="geometry" />
        </mxCell>
        <mxCell id="dps-_7VcEIM5uik_NXev-9" value="Output" style="shape=document;whiteSpace=wrap;html=1;boundedLbl=1;" vertex="1" parent="1">
          <mxGeometry x="600" y="350" width="120" height="80" as="geometry" />
        </mxCell>
      </root>
    </mxGraphModel>
  </diagram>
</mxfile>
